HIERARCHY
ROOT root
{
	OFFSET	0	13.1	24.9
	CHANNELS 6  Xposition Yposition Zposition Xrotation Yrotation Zrotation
	JOINT spine_1
	{
		OFFSET	0	9.99999	0
		CHANNELS 3  Xrotation Yrotation Zrotation
		JOINT spine_2
		{
			OFFSET	0	112	-10
			CHANNELS 3  Xrotation Yrotation Zrotation
			JOINT spine_3
			{
				OFFSET	0	206.5	19.3
				CHANNELS 3  Xrotation Yrotation Zrotation
				JOINT spine_4
				{
					OFFSET	0	110.4	14.6
					CHANNELS 3  Xrotation Yrotation Zrotation
					JOINT neck_1
					{
						OFFSET	0	71.8	-50.3
						CHANNELS 3  Xrotation Yrotation Zrotation
						JOINT neck_2
						{
							OFFSET	0	86.2	-25.8
							CHANNELS 3  Xrotation Yrotation Zrotation
							JOINT head_ee
							{
								OFFSET	0	179.8	-8.7
								CHANNELS 3  Xrotation Yrotation Zrotation
								End Site
								{
									OFFSET	1	0	0
								}
							}
						}
					}
					JOINT left_clavicle
					{
						OFFSET	-43.2	22.4	-70.8
						CHANNELS 3  Xrotation Yrotation Zrotation
						JOINT left_shoulder
						{
							OFFSET	-93.9	-5.79999	48.7
							CHANNELS 3  Xrotation Yrotation Zrotation
							JOINT left_elbow
							{
								OFFSET	-291.4	-30.8	15.2
								CHANNELS 3  Xrotation Yrotation Zrotation
								JOINT left_lowarm_twist
								{
									OFFSET	-110.7	-3.89999	13.6
									CHANNELS 3  Xrotation Yrotation Zrotation
									JOINT left_hand
									{
										OFFSET	-110.7	-3.89999	13.6
										CHANNELS 3  Xrotation Yrotation Zrotation
										JOINT left_ee
										{
											OFFSET	-80.8	-5.10001	12.1
											CHANNELS 3  Xrotation Yrotation Zrotation
											End Site
											{
												OFFSET	1	0	0
											}
										}
									}
								}
							}
						}
					}
					JOINT right_clavicle
					{
						OFFSET	43.2	22.4	-70.8
						CHANNELS 3  Xrotation Yrotation Zrotation
						JOINT right_shoulder
						{
							OFFSET	93.9	-5.79999	48.7
							CHANNELS 3  Xrotation Yrotation Zrotation
							JOINT right_elbow
							{
								OFFSET	291.4	-30.8	15.2
								CHANNELS 3  Xrotation Yrotation Zrotation
								JOINT right_lowarm_twist
								{
									OFFSET	110.7	-3.89999	13.6
									CHANNELS 3  Xrotation Yrotation Zrotation
									JOINT right_hand
									{
										OFFSET	110.7	-3.89999	13.6
										CHANNELS 3  Xrotation Yrotation Zrotation
										JOINT right_ee
										{
											OFFSET	80.8	-5.10001	12.1
											CHANNELS 3  Xrotation Yrotation Zrotation
											End Site
											{
												OFFSET	1	0	0
											}
										}
									}
								}
							}
						}
					}
				}
			}
		}
	}
	JOINT left_hip
	{
		OFFSET	-82.8	-127.5	0.300001
		CHANNELS 3  Xrotation Yrotation Zrotation
		JOINT left_knee
		{
			OFFSET	-28.2	-396.7	2.2
			CHANNELS 3  Xrotation Yrotation Zrotation
			JOINT left_ankle
			{
				OFFSET	-11.7	-411.3	35.4
				CHANNELS 3  Xrotation Yrotation Zrotation
				JOINT left_toes
				{
					OFFSET	0	-60	-88.6
					CHANNELS 3  Xrotation Yrotation Zrotation
					JOINT left_foot_ee
					{
						OFFSET	-22.5	-16.5	-42.2
						CHANNELS 3  Xrotation Yrotation Zrotation
						End Site
						{
							OFFSET	1	0	0
						}
					}
				}
			}
		}
	}
	JOINT right_hip
	{
		OFFSET	82.8	-127.5	0.300001
		CHANNELS 3  Xrotation Yrotation Zrotation
		JOINT right_knee
		{
			OFFSET	28.2	-396.7	2.2
			CHANNELS 3  Xrotation Yrotation Zrotation
			JOINT right_ankle
			{
				OFFSET	11.7	-411.3	35.4
				CHANNELS 3  Xrotation Yrotation Zrotation
				JOINT right_toes
				{
					OFFSET	0	-60	-88.6
					CHANNELS 3  Xrotation Yrotation Zrotation
					JOINT right_foot_ee
					{
						OFFSET	22.5	-16.5	-42.2
						CHANNELS 3  Xrotation Yrotation Zrotation
						End Site
						{
							OFFSET	1	0	0
						}
					}
				}
			}
		}
	}
}
MOTION
Frames: 5
Frame Time: 0.02
2079.16 721.977 -859.665 -173.629 -63.9985 -171.274 0.381147 -0.819079 -3.59888 0.388159 -0.588569 -3.64363 0.429016 0.162587 -3.68722 0.410295 -0.42138 -3.66669 -17.9174 8.71706 9.35887 -17.8214 11.6898 12.0229 -0.0 0.0 -0.0 10.475 1.92148 20.5193 -1.733 -26.513 52.9937 2.53609 -51.4724 1.22267 11.986 0.265709 -1.50526 -1.6889 0.0768777 -11.3184 -0.0 0.0 -0.0 1.68651 3.15165 -2.96188 -24.1699 20.0736 -64.5421 0.396295 11.1069 -0.0385319 -67.0371 6.16861 -5.26584 0.583681 2.52714 -2.85255 0.0 0.0 0.0 -5.87812 -1.54636 1.64844 -14.9404 0.321584 2.26375 16.7477 18.6519 -2.36506 40.0103 -0.0 -0.0 -0.0 0.0 -0.0 30.3349 11.1625 -0.281486 1.40113 0.0602278 0.206566 12.208 -1.04627 1.73337 -30.6658 0.0 0.0 0.0 0.0 0.0 
2101.2 716.892 -846.331 -173.412 -64.8959 -171.099 0.316222 -0.873798 -3.66516 0.323468 -0.63897 -3.71324 0.36863 0.131234 -3.76546 0.349149 -0.464673 -3.73902 -16.7684 9.39181 9.58083 -16.6678 12.6452 12.3332 -0.0 0.0 -0.0 10.4178 -0.919408 20.5689 -2.52014 -24.6707 52.6259 2.41327 -50.0801 1.12751 12.1906 0.267493 -1.53134 -1.65598 -0.405358 -11.3153 -0.0 0.0 -0.0 2.17461 3.32615 -3.91268 -24.3519 20.1564 -63.5875 0.388849 10.9032 -0.0371108 -67.0575 6.17121 -5.26616 0.673858 2.09236 -3.63994 0.0 0.0 0.0 -6.04182 -1.65767 1.24945 -16.811 0.319974 2.55073 16.4508 18.7088 -2.3263 40.1438 -0.0 -0.0 -0.0 0.0 -0.0 31.2477 10.6428 -1.20824 -4.03684 -0.145032 -0.602429 14.8031 0.227063 2.08593 -27.9976 0.0 0.0 0.0 0.0 0.0 
2125.46 714.715 -835.042 -174.353 -65.8217 -171.802 0.15449 -0.95284 -3.76149 0.162079 -0.711735 -3.81439 0.213866 0.0909614 -3.87906 0.193253 -0.522344 -3.84486 -15.9554 9.87046 9.69996 -15.8518 13.3336 12.5082 -0.0 0.0 -0.0 10.479 -3.05757 20.7899 -3.94086 -23.4159 53.5723 2.37255 -49.5998 1.09639 11.2714 0.258747 -1.41426 -1.76724 -0.428761 -12.0861 -0.0 0.0 -0.0 2.47065 2.94978 -4.52968 -25.2404 21.7025 -62.4175 0.399126 11.1842 -0.0390792 -67.2085 6.19039 -5.26848 0.762559 1.65322 -4.41849 0.0 0.0 0.0 -7.20771 -1.39245 0.870953 -18.1058 0.313374 2.74928 16.1784 17.3635 -2.2802 40.1513 -0.0 -0.0 -0.0 0.0 -0.0 31.9168 10.3775 -1.709 -9.04313 -0.26538 -1.36103 14.2937 0.958104 2.02211 -25.7848 0.0 0.0 0.0 0.0 0.0 
2156.0 712.577 -817.989 -175.698 -65.612 -173.331 0.00676941 -0.805845 -3.75077 0.014417 -0.565717 -3.79436 0.0563622 0.240564 -3.8287 0.0360973 -0.366674 -3.8187 -12.6114 11.2644 8.94278 -12.5337 15.7608 11.8052 -0.0 0.0 -0.0 10.5112 -4.59909 20.9073 -5.61563 -21.9196 54.6177 2.20741 -47.5507 0.972548 10.8915 0.254584 -1.36591 -1.806 -0.799823 -12.5228 -0.0 0.0 -0.0 2.75413 2.3219 -5.13746 -26.443 23.3073 -61.7279 0.407956 11.4252 -0.0408104 -68.0642 6.29925 -5.28069 0.795574 0.806149 -4.98993 0.0 0.0 0.0 -7.98027 -1.48983 0.54194 -20.1606 0.293696 3.06392 16.6361 19.042 -2.35357 40.1536 -0.0 -0.0 -0.0 0.0 -0.0 31.6751 9.97659 -2.6762 -12.5261 -0.309813 -1.89354 6.8414 2.23142 0.998697 -24.7391 0.0 0.0 0.0 0.0 0.0 
2186.04 716.065 -799.19 -176.392 -65.5047 -174.429 -0.0390582 -0.508601 -3.46645 -0.03242 -0.287128 -3.49175 -0.011385 0.454235 -3.47399 -0.0282096 -0.0997681 -3.5021 -11.6767 11.9726 9.54963 -11.5574 16.5101 12.4533 -0.0 0.0 -0.0 9.92607 -3.51836 19.6319 -7.52854 -20.7065 57.0695 2.21963 -47.7081 0.981575 7.89858 0.210593 -0.986183 -1.77068 -0.390171 -12.0918 -0.0 0.0 -0.0 2.93002 1.00041 -5.57737 -26.8337 24.5455 -61.1505 0.510665 14.1964 -0.0635909 -69.4724 6.4787 -5.29721 0.980733 0.5206 -6.35205 0.0 0.0 0.0 -8.48572 -1.00312 0.0698983 -21.507 0.274686 3.26964 16.3635 19.9362 -2.32519 40.0878 -0.0 -0.0 -0.0 0.0 -0.0 30.7158 7.11337 -2.20732 -14.1839 -0.319574 -2.1477 0.112378 3.79211 0.0168211 -21.6194 0.0 0.0 0.0 0.0 0.0 
